{
	"asset":{
		"generator":"Khronos glTF Blender I/O v3.6.28",
		"version":"2.0"
	},
	"scene":0,
	"scenes":[
		{
			"name":"Scene",
			"nodes":[
				0
			]
		}
	],
	"nodes":[
		{
			"mesh":0,
			"name":"Base"
		}
	],
	"meshes":[
		{
			"name":"Base",
			"primitives":[
				{
					"attributes":{
						"POSITION":0,
						"NORMAL":1
					},
					"indices":2
				}
			]
		}
	],
	"accessors":[
		{
			"bufferView":0,
			"componentType":5126,
			"count":15888,
			"max":[
				0.0625,
				0.148499995470047,
				0.08500000089406967
			],
			"min":[
				-0.1080000028014183,
				-0.010999999940395355,
				-0.08500000089406967
			],
			"type":"VEC3"
		},
		{
			"bufferView":1,
			"componentType":5126,
			"count":15888,
			"type":"VEC3"
		},
		{
			"bufferView":2,
			"componentType":5123,
			"count":96489,
			"type":"SCALAR"
		}
	],
	"bufferViews":[
		{
			"buffer":0,
			"byteLength":190656,
			"byteOffset":0,
			"target":34962
		},
		{
			"buffer":0,
			"byteLength":190656,
			"byteOffset":190656,
			"target":34962
		},
		{
			"buffer":0,
			"byteLength":192978,
			"byteOffset":381312,
			"target":34963
		}
	],
	"buffers":[
		{
			"byteLength":574292,
			"uri":"Base.bin"
		}
	]
}
