{
	"asset":{
		"generator":"Khronos glTF Blender I/O v3.6.28",
		"version":"2.0"
	},
	"scene":0,
	"scenes":[
		{
			"name":"Scene",
			"nodes":[
				0
			]
		}
	],
	"nodes":[
		{
			"mesh":0,
			"name":"Body"
		}
	],
	"meshes":[
		{
			"name":"Body",
			"primitives":[
				{
					"attributes":{
						"POSITION":0,
						"NORMAL":1
					},
					"indices":2
				}
			]
		}
	],
	"accessors":[
		{
			"bufferView":0,
			"componentType":5126,
			"count":61327,
			"max":[
				0.1420290321111679,
				0.35350000858306885,
				0.11050000041723251
			],
			"min":[
				-0.05000000074505806,
				-0.0020000000949949026,
				-0.11050000041723251
			],
			"type":"VEC3"
		},
		{
			"bufferView":1,
			"componentType":5126,
			"count":61327,
			"type":"VEC3"
		},
		{
			"bufferView":2,
			"componentType":5123,
			"count":368958,
			"type":"SCALAR"
		}
	],
	"bufferViews":[
		{
			"buffer":0,
			"byteLength":735924,
			"byteOffset":0,
			"target":34962
		},
		{
			"buffer":0,
			"byteLength":735924,
			"byteOffset":735924,
			"target":34962
		},
		{
			"buffer":0,
			"byteLength":737916,
			"byteOffset":1471848,
			"target":34963
		}
	],
	"buffers":[
		{
			"byteLength":2209764,
			"uri":"Body.bin"
		}
	]
}
