{
	"asset":{
		"generator":"Khronos glTF Blender I/O v3.6.28",
		"version":"2.0"
	},
	"scene":0,
	"scenes":[
		{
			"name":"Scene",
			"nodes":[
				0
			]
		}
	],
	"nodes":[
		{
			"mesh":0,
			"name":"L_GripperB"
		}
	],
	"meshes":[
		{
			"name":"L_GripperB",
			"primitives":[
				{
					"attributes":{
						"POSITION":0,
						"NORMAL":1
					},
					"indices":2
				}
			]
		}
	],
	"accessors":[
		{
			"bufferView":0,
			"componentType":5126,
			"count":2841,
			"max":[
				0.013328035362064838,
				0.02449999935925007,
				0.013328035362064838
			],
			"min":[
				-0.013000000268220901,
				-0.02449999935925007,
				-0.05999999865889549
			],
			"type":"VEC3"
		},
		{
			"bufferView":1,
			"componentType":5126,
			"count":2841,
			"type":"VEC3"
		},
		{
			"bufferView":2,
			"componentType":5123,
			"count":17181,
			"type":"SCALAR"
		}
	],
	"bufferViews":[
		{
			"buffer":0,
			"byteLength":34092,
			"byteOffset":0,
			"target":34962
		},
		{
			"buffer":0,
			"byteLength":34092,
			"byteOffset":34092,
			"target":34962
		},
		{
			"buffer":0,
			"byteLength":34362,
			"byteOffset":68184,
			"target":34963
		}
	],
	"buffers":[
		{
			"byteLength":102548,
			"uri":"L_GripperB.bin"
		}
	]
}
