{
	"asset":{
		"generator":"Khronos glTF Blender I/O v3.6.28",
		"version":"2.0"
	},
	"scene":0,
	"scenes":[
		{
			"name":"Scene",
			"nodes":[
				0
			]
		}
	],
	"nodes":[
		{
			"mesh":0,
			"name":"L_Link6"
		}
	],
	"meshes":[
		{
			"name":"L_Link6",
			"primitives":[
				{
					"attributes":{
						"POSITION":0,
						"NORMAL":1
					},
					"indices":2
				}
			]
		}
	],
	"accessors":[
		{
			"bufferView":0,
			"componentType":5126,
			"count":25483,
			"max":[
				0.04247152432799339,
				0.027499999850988388,
				0.042500000447034836
			],
			"min":[
				-0.04247152432799339,
				-0.029500000178813934,
				-0.023399999365210533
			],
			"type":"VEC3"
		},
		{
			"bufferView":1,
			"componentType":5126,
			"count":25483,
			"type":"VEC3"
		},
		{
			"bufferView":2,
			"componentType":5123,
			"count":152898,
			"type":"SCALAR"
		}
	],
	"bufferViews":[
		{
			"buffer":0,
			"byteLength":305796,
			"byteOffset":0,
			"target":34962
		},
		{
			"buffer":0,
			"byteLength":305796,
			"byteOffset":305796,
			"target":34962
		},
		{
			"buffer":0,
			"byteLength":305796,
			"byteOffset":611592,
			"target":34963
		}
	],
	"buffers":[
		{
			"byteLength":917388,
			"uri":"L_Link6.bin"
		}
	]
}
