{
	"asset":{
		"generator":"Khronos glTF Blender I/O v3.6.28",
		"version":"2.0"
	},
	"scene":0,
	"scenes":[
		{
			"name":"Scene",
			"nodes":[
				0
			]
		}
	],
	"nodes":[
		{
			"mesh":0,
			"name":"L_Link5"
		}
	],
	"meshes":[
		{
			"name":"L_Link5",
			"primitives":[
				{
					"attributes":{
						"POSITION":0,
						"NORMAL":1
					},
					"indices":2
				}
			]
		}
	],
	"accessors":[
		{
			"bufferView":0,
			"componentType":5126,
			"count":33166,
			"max":[
				0.04800000041723251,
				0.14697320759296417,
				0.03449999913573265
			],
			"min":[
				-0.028496596962213516,
				2.510338575585565e-16,
				-0.03449999913573265
			],
			"type":"VEC3"
		},
		{
			"bufferView":1,
			"componentType":5126,
			"count":33166,
			"type":"VEC3"
		},
		{
			"bufferView":2,
			"componentType":5123,
			"count":199800,
			"type":"SCALAR"
		}
	],
	"bufferViews":[
		{
			"buffer":0,
			"byteLength":397992,
			"byteOffset":0,
			"target":34962
		},
		{
			"buffer":0,
			"byteLength":397992,
			"byteOffset":397992,
			"target":34962
		},
		{
			"buffer":0,
			"byteLength":399600,
			"byteOffset":795984,
			"target":34963
		}
	],
	"buffers":[
		{
			"byteLength":1195584,
			"uri":"L_Link5.bin"
		}
	]
}
