{
	"asset":{
		"generator":"Khronos glTF Blender I/O v3.6.28",
		"version":"2.0"
	},
	"scene":0,
	"scenes":[
		{
			"name":"Scene",
			"nodes":[
				0
			]
		}
	],
	"nodes":[
		{
			"mesh":0,
			"name":"L_Link2"
		}
	],
	"meshes":[
		{
			"name":"L_Link2",
			"primitives":[
				{
					"attributes":{
						"POSITION":0,
						"NORMAL":1
					},
					"indices":2
				}
			]
		}
	],
	"accessors":[
		{
			"bufferView":0,
			"componentType":5126,
			"count":37418,
			"max":[
				0.032708875834941864,
				0.03610000014305115,
				0.027000000700354576
			],
			"min":[
				-0.03269914910197258,
				-0.03610000014305115,
				-0.06700000166893005
			],
			"type":"VEC3"
		},
		{
			"bufferView":1,
			"componentType":5126,
			"count":37418,
			"type":"VEC3"
		},
		{
			"bufferView":2,
			"componentType":5123,
			"count":224967,
			"type":"SCALAR"
		}
	],
	"bufferViews":[
		{
			"buffer":0,
			"byteLength":449016,
			"byteOffset":0,
			"target":34962
		},
		{
			"buffer":0,
			"byteLength":449016,
			"byteOffset":449016,
			"target":34962
		},
		{
			"buffer":0,
			"byteLength":449934,
			"byteOffset":898032,
			"target":34963
		}
	],
	"buffers":[
		{
			"byteLength":1347968,
			"uri":"L_Link2.bin"
		}
	]
}
