{
	"asset":{
		"generator":"Khronos glTF Blender I/O v3.6.28",
		"version":"2.0"
	},
	"scene":0,
	"scenes":[
		{
			"name":"Scene",
			"nodes":[
				0
			]
		}
	],
	"nodes":[
		{
			"mesh":0,
			"name":"L_Link1"
		}
	],
	"meshes":[
		{
			"name":"L_Link1",
			"primitives":[
				{
					"attributes":{
						"POSITION":0,
						"NORMAL":1
					},
					"indices":2
				}
			]
		}
	],
	"accessors":[
		{
			"bufferView":0,
			"componentType":5126,
			"count":16327,
			"max":[
				0.03345286101102829,
				0.09799999743700027,
				0.03399904817342758
			],
			"min":[
				-0.03350000083446503,
				-0.0020000000949949026,
				-0.033999331295490265
			],
			"type":"VEC3"
		},
		{
			"bufferView":1,
			"componentType":5126,
			"count":16327,
			"type":"VEC3"
		},
		{
			"bufferView":2,
			"componentType":5123,
			"count":98274,
			"type":"SCALAR"
		}
	],
	"bufferViews":[
		{
			"buffer":0,
			"byteLength":195924,
			"byteOffset":0,
			"target":34962
		},
		{
			"buffer":0,
			"byteLength":195924,
			"byteOffset":195924,
			"target":34962
		},
		{
			"buffer":0,
			"byteLength":196548,
			"byteOffset":391848,
			"target":34963
		}
	],
	"buffers":[
		{
			"byteLength":588396,
			"uri":"L_Link1.bin"
		}
	]
}
