{
	"asset":{
		"generator":"Khronos glTF Blender I/O v3.6.28",
		"version":"2.0"
	},
	"scene":0,
	"scenes":[
		{
			"name":"Scene",
			"nodes":[
				0
			]
		}
	],
	"nodes":[
		{
			"mesh":0,
			"name":"L_Link3"
		}
	],
	"meshes":[
		{
			"name":"L_Link3",
			"primitives":[
				{
					"attributes":{
						"POSITION":0,
						"NORMAL":1
					},
					"indices":2
				}
			]
		}
	],
	"accessors":[
		{
			"bufferView":0,
			"componentType":5126,
			"count":16944,
			"max":[
				0.03410841152071953,
				0.21899190545082092,
				0.03405512124300003
			],
			"min":[
				-0.05999999865889549,
				-0.014000000432133675,
				-0.034055158495903015
			],
			"type":"VEC3"
		},
		{
			"bufferView":1,
			"componentType":5126,
			"count":16944,
			"type":"VEC3"
		},
		{
			"bufferView":2,
			"componentType":5123,
			"count":101838,
			"type":"SCALAR"
		}
	],
	"bufferViews":[
		{
			"buffer":0,
			"byteLength":203328,
			"byteOffset":0,
			"target":34962
		},
		{
			"buffer":0,
			"byteLength":203328,
			"byteOffset":203328,
			"target":34962
		},
		{
			"buffer":0,
			"byteLength":203676,
			"byteOffset":406656,
			"target":34963
		}
	],
	"buffers":[
		{
			"byteLength":610332,
			"uri":"L_Link3.bin"
		}
	]
}
