{
	"asset":{
		"generator":"Khronos glTF Blender I/O v3.6.28",
		"version":"2.0"
	},
	"scene":0,
	"scenes":[
		{
			"name":"Scene",
			"nodes":[
				0
			]
		}
	],
	"nodes":[
		{
			"mesh":0,
			"name":"L_Link4"
		}
	],
	"meshes":[
		{
			"name":"L_Link4",
			"primitives":[
				{
					"attributes":{
						"POSITION":0,
						"NORMAL":1
					},
					"indices":2
				}
			]
		}
	],
	"accessors":[
		{
			"bufferView":0,
			"componentType":5126,
			"count":40905,
			"max":[
				0.031161364167928696,
				0.03604999929666519,
				0.026996297761797905
			],
			"min":[
				-0.04500000178813934,
				-0.03604999929666519,
				-0.13500000536441803
			],
			"type":"VEC3"
		},
		{
			"bufferView":1,
			"componentType":5126,
			"count":40905,
			"type":"VEC3"
		},
		{
			"bufferView":2,
			"componentType":5123,
			"count":245721,
			"type":"SCALAR"
		}
	],
	"bufferViews":[
		{
			"buffer":0,
			"byteLength":490860,
			"byteOffset":0,
			"target":34962
		},
		{
			"buffer":0,
			"byteLength":490860,
			"byteOffset":490860,
			"target":34962
		},
		{
			"buffer":0,
			"byteLength":491442,
			"byteOffset":981720,
			"target":34963
		}
	],
	"buffers":[
		{
			"byteLength":1473164,
			"uri":"L_Link4.bin"
		}
	]
}
