{
	"asset":{
		"generator":"Khronos glTF Blender I/O v3.6.28",
		"version":"2.0"
	},
	"scene":0,
	"scenes":[
		{
			"name":"Scene",
			"nodes":[
				0
			]
		}
	],
	"nodes":[
		{
			"mesh":0,
			"name":"Logo_Rabbit"
		}
	],
	"meshes":[
		{
			"name":"Logo_Rabbit",
			"primitives":[
				{
					"attributes":{
						"POSITION":0,
						"NORMAL":1
					},
					"indices":2
				}
			]
		}
	],
	"accessors":[
		{
			"bufferView":0,
			"componentType":5126,
			"count":938,
			"max":[
				0.0036885743029415607,
				9.999999747378752e-05,
				0.0061464374884963036
			],
			"min":[
				-0.004348416347056627,
				0,
				-0.0066286008805036545
			],
			"type":"VEC3"
		},
		{
			"bufferView":1,
			"componentType":5126,
			"count":938,
			"type":"VEC3"
		},
		{
			"bufferView":2,
			"componentType":5123,
			"count":5628,
			"type":"SCALAR"
		}
	],
	"bufferViews":[
		{
			"buffer":0,
			"byteLength":11256,
			"byteOffset":0,
			"target":34962
		},
		{
			"buffer":0,
			"byteLength":11256,
			"byteOffset":11256,
			"target":34962
		},
		{
			"buffer":0,
			"byteLength":11256,
			"byteOffset":22512,
			"target":34963
		}
	],
	"buffers":[
		{
			"byteLength":33768,
			"uri":"Logo_Rabbit.bin"
		}
	]
}
