{
	"asset":{
		"generator":"Khronos glTF Blender I/O v3.6.28",
		"version":"2.0"
	},
	"scene":0,
	"scenes":[
		{
			"name":"Scene",
			"nodes":[
				0
			]
		}
	],
	"nodes":[
		{
			"mesh":0,
			"name":"R_Link7"
		}
	],
	"meshes":[
		{
			"name":"R_Link7",
			"primitives":[
				{
					"attributes":{
						"POSITION":0,
						"NORMAL":1
					},
					"indices":2
				}
			]
		}
	],
	"accessors":[
		{
			"bufferView":0,
			"componentType":5126,
			"count":17818,
			"max":[
				0.030249999836087227,
				0.042249999940395355,
				0.02749842405319214
			],
			"min":[
				-0.030249999836087227,
				-0.0020000000949949026,
				-0.028999999165534973
			],
			"type":"VEC3"
		},
		{
			"bufferView":1,
			"componentType":5126,
			"count":17818,
			"type":"VEC3"
		},
		{
			"bufferView":2,
			"componentType":5123,
			"count":107382,
			"type":"SCALAR"
		}
	],
	"bufferViews":[
		{
			"buffer":0,
			"byteLength":213816,
			"byteOffset":0,
			"target":34962
		},
		{
			"buffer":0,
			"byteLength":213816,
			"byteOffset":213816,
			"target":34962
		},
		{
			"buffer":0,
			"byteLength":214764,
			"byteOffset":427632,
			"target":34963
		}
	],
	"buffers":[
		{
			"byteLength":642396,
			"uri":"R_Link7.bin"
		}
	]
}
