{
	"asset":{
		"generator":"Khronos glTF Blender I/O v3.6.28",
		"version":"2.0"
	},
	"scene":0,
	"scenes":[
		{
			"name":"Scene",
			"nodes":[
				0
			]
		}
	],
	"nodes":[
		{
			"mesh":0,
			"name":"R_Link5"
		}
	],
	"meshes":[
		{
			"name":"R_Link5",
			"primitives":[
				{
					"attributes":{
						"POSITION":0,
						"NORMAL":1
					},
					"indices":2
				}
			]
		}
	],
	"accessors":[
		{
			"bufferView":0,
			"componentType":5126,
			"count":38545,
			"max":[
				0.04800000041723251,
				0.14697320759296417,
				0.03449999913573265
			],
			"min":[
				-0.028496596962213516,
				-0.0020000000949949026,
				-0.03449999913573265
			],
			"type":"VEC3"
		},
		{
			"bufferView":1,
			"componentType":5126,
			"count":38545,
			"type":"VEC3"
		},
		{
			"bufferView":2,
			"componentType":5123,
			"count":231918,
			"type":"SCALAR"
		}
	],
	"bufferViews":[
		{
			"buffer":0,
			"byteLength":462540,
			"byteOffset":0,
			"target":34962
		},
		{
			"buffer":0,
			"byteLength":462540,
			"byteOffset":462540,
			"target":34962
		},
		{
			"buffer":0,
			"byteLength":463836,
			"byteOffset":925080,
			"target":34963
		}
	],
	"buffers":[
		{
			"byteLength":1388916,
			"uri":"R_Link5.bin"
		}
	]
}
